<svg width="30" height="30" viewBox="0 0 30 30" fill="none" xmlns="http://www.w3.org/2000/svg">
<g id="cooking-food-bbq-svgrepo-com 1">
<g id="_x36_">
<path id="Vector" d="M11.0024 7.82745C10.8971 7.82745 10.7567 7.79367 10.6514 7.69234C10.4408 7.52346 10.4057 7.1857 10.5812 6.98305C10.6865 6.88172 11.4237 5.93598 10.6514 5.29424C9.35265 4.24718 10.0547 2.7948 10.5812 2.18683C10.7567 1.98417 11.1078 1.9504 11.3184 2.11928C11.529 2.28816 11.5641 2.62592 11.3886 2.82858C11.2833 2.9299 10.5461 3.87564 11.3184 4.51739C12.6171 5.56445 11.9151 7.01682 11.3886 7.62479C11.3184 7.7599 11.178 7.82745 11.0024 7.82745ZM19.1461 7.62479C19.6727 7.01682 20.3747 5.56445 19.0759 4.51739C18.2686 3.87564 19.0408 2.9299 19.1461 2.82858C19.3216 2.62592 19.2865 2.28816 19.0759 2.11928C18.8653 1.9504 18.5143 1.9504 18.3388 2.18683C17.8122 2.7948 17.1102 4.24718 18.409 5.29424C19.2163 5.93598 18.4441 6.88172 18.3388 6.98305C18.1633 7.1857 18.1633 7.52346 18.409 7.69234C18.5143 7.7599 18.6196 7.82745 18.76 7.82745C18.9004 7.82745 19.0408 7.7599 19.1461 7.62479ZM14.5127 17.0821C14.5127 16.8119 14.302 16.5755 14.0212 16.5417C11.4237 16.4066 11.178 14.2449 11.178 14.1436C11.1429 13.8734 10.8971 13.6707 10.6163 13.6707C10.3355 13.7045 10.1249 13.9409 10.1249 14.2111C10.1951 15.292 11.1078 17.3861 13.951 17.555H13.9861C14.2669 17.555 14.5127 17.3523 14.5127 17.0821ZM25.64 11.5766C25.64 11.8468 25.3943 12.0832 25.1135 12.0832H24.1306V12.117C24.1306 15.1569 22.4457 17.9603 19.7078 19.4465L21.0065 22.8916C21.1469 22.8578 21.3224 22.8578 21.498 22.8578C23.218 22.8578 24.622 24.2089 24.622 25.8639C24.622 27.519 23.218 28.87 21.498 28.87C20.6555 28.87 19.8833 28.566 19.2865 27.9918C18.8302 27.5527 18.5494 26.9785 18.4441 26.4043H9.17714L8.65061 27.7892C8.58041 27.9918 8.3698 28.1269 8.15918 28.1269C8.08898 28.1269 8.05388 28.1269 7.98367 28.0931C7.70286 27.9918 7.56245 27.7216 7.66775 27.4514L10.7216 19.3789C8.08898 17.859 6.50939 15.1231 6.50939 12.1508V12.117H5.52653C5.24571 12.117 5 11.8806 5 11.6104C5 11.3402 5.24571 11.1037 5.52653 11.1037H25.1486C25.4294 11.07 25.64 11.3064 25.64 11.5766ZM21.498 23.8711C21.2873 23.8711 21.0416 23.9049 20.8661 23.9725C20.0237 24.2427 19.4971 24.952 19.462 25.7964C19.462 25.8301 19.462 25.8301 19.462 25.8639C19.462 25.8977 19.462 25.8977 19.462 25.9315C19.462 26.4381 19.6727 26.911 20.0588 27.2487C20.4449 27.6203 20.9714 27.8229 21.5331 27.8229C22.6563 27.8229 23.6041 26.9448 23.6041 25.8301C23.6041 24.7155 22.6563 23.8711 21.498 23.8711ZM20.0237 23.2294L18.76 19.9193C18.5494 19.9869 18.3388 20.0882 18.1282 20.1558C17.2155 20.4597 16.2678 20.5948 15.2849 20.5948C14.302 20.5948 13.3543 20.4597 12.4416 20.1558C12.231 20.0882 12.0204 20.0206 11.8098 19.9193C11.7747 19.9193 11.7396 19.8855 11.7045 19.8855C11.6694 19.8855 11.6343 19.8518 11.6343 19.8518L9.52816 25.3573H18.409C18.409 25.256 18.4441 25.1884 18.4792 25.0871C18.4792 25.0533 18.4792 25.0533 18.5143 25.0195C18.5494 24.9182 18.5845 24.7831 18.6196 24.6818C18.6196 24.6818 18.6196 24.648 18.6547 24.648C18.6898 24.5467 18.76 24.4453 18.8302 24.344V24.3102C18.9004 24.2089 18.9706 24.1076 19.0408 24.0062L19.0759 23.9725C19.1461 23.8711 19.2163 23.8036 19.3216 23.7022L19.3567 23.6685C19.462 23.6009 19.5322 23.4996 19.6375 23.432C19.6375 23.432 19.6376 23.432 19.6727 23.432C19.778 23.3645 19.8833 23.2969 20.0237 23.2294ZM23.0775 12.117H7.56245V12.1508C7.56245 14.8867 9.10694 17.4199 11.6343 18.7372C11.8098 18.8385 12.0204 18.9398 12.231 19.0074C12.4416 19.1087 12.6522 19.1762 12.8278 19.2438C14.4424 19.7842 16.1975 19.7842 17.8122 19.2438C18.1633 19.1087 18.5143 18.9736 18.8302 18.8385C21.4629 17.4874 23.0775 14.9542 23.0775 12.117Z" fill="black"/>
</g>
</g>
</svg>
