<svg width="30" height="30" viewBox="0 0 30 30" fill="none" xmlns="http://www.w3.org/2000/svg">
<g id="dish-cleaning-svgrepo-com 1">
<g id="Group">
<path id="Vector" d="M13.1934 6.45508C15.6445 6.45508 17.8638 7.44873 19.4702 9.05518C21.0767 10.6616 22.0703 12.8809 22.0703 15.332C22.0703 17.7832 21.0767 20.0024 19.4702 21.6089C17.8638 23.2153 15.6421 24.2065 13.1934 24.2065C10.7422 24.2065 8.52295 23.2129 6.9165 21.6064C5.31006 20 4.31641 17.7808 4.31641 15.3296C4.31641 12.8784 5.31006 10.6592 6.9165 9.05273C8.52295 7.44873 10.7422 6.45508 13.1934 6.45508ZM26.0669 7.94434H25.9619C25.9619 7.09473 25.6445 6.35254 25.0098 5.71533C24.375 5.08057 23.6328 4.76318 22.7808 4.76318V4.6582C23.6304 4.6582 24.3726 4.34082 25.0098 3.70361C25.6445 3.06641 25.9619 2.32422 25.9619 1.47705H26.0669C26.0669 2.32666 26.3843 3.06885 27.019 3.70605C27.6538 4.34082 28.3984 4.6582 29.248 4.6582V4.76318C28.3984 4.76318 27.6562 5.08057 27.019 5.71533C26.3843 6.35254 26.0669 7.09473 26.0669 7.94434ZM28.042 13.2666H27.9785C27.9785 12.7441 27.7832 12.2852 27.3926 11.8945C27.0019 11.5039 26.543 11.3086 26.0205 11.3086V11.2427C26.543 11.2427 27.0019 11.0474 27.3926 10.6543C27.7832 10.2612 27.9785 9.80469 27.9785 9.28223H28.042C28.042 9.80469 28.2373 10.2637 28.6279 10.6543C29.0186 11.0449 29.4775 11.2402 30 11.2402V11.3037C29.4775 11.3037 29.0186 11.499 28.6279 11.8896C28.2373 12.2852 28.042 12.7417 28.042 13.2666ZM22.395 11.3501H22.3462C22.3462 10.9595 22.1997 10.6201 21.9092 10.3271C21.6186 10.0366 21.2769 9.89014 20.8862 9.89014V9.84131C21.2769 9.84131 21.6162 9.69482 21.9092 9.4043C22.1997 9.11133 22.3462 8.77197 22.3462 8.38379H22.395C22.395 8.77441 22.5415 9.11377 22.832 9.40674C23.1226 9.69727 23.4644 9.84375 23.855 9.84375V9.89258C23.4644 9.89258 23.125 10.0391 22.832 10.3296C22.5415 10.6201 22.395 10.9595 22.395 11.3501ZM18.0493 16.8457C18.1006 16.6724 18.2812 16.5747 18.4546 16.626C18.6279 16.6772 18.7256 16.8579 18.6743 17.0312C18.3813 18.0005 17.8955 18.8062 17.3022 19.4263C16.6528 20.105 15.8765 20.5615 15.083 20.7666C14.9097 20.8105 14.7314 20.708 14.6875 20.5322C14.6436 20.3589 14.7461 20.1807 14.9219 20.1367C15.603 19.9585 16.272 19.5654 16.8359 18.9771C17.3584 18.4302 17.7881 17.7148 18.0493 16.8457ZM13.1934 2.13867C16.8359 2.13867 20.1343 3.61572 22.522 6.00342C24.9097 8.39111 26.3867 11.6895 26.3867 15.332C26.3867 18.9746 24.9097 22.2729 22.522 24.6606C20.1343 27.0483 16.8359 28.5254 13.1934 28.5254C9.55078 28.5254 6.25244 27.0483 3.86475 24.6606C1.47705 22.2705 0 18.9722 0 15.3296C0 11.687 1.47705 8.38867 3.86475 6.00098C6.25244 3.61328 9.54834 2.13867 13.1934 2.13867ZM21.9116 6.61133C19.6802 4.37988 16.5967 3.00049 13.1934 3.00049C9.7876 3.00049 6.70654 4.37988 4.4751 6.61133C2.24365 8.84277 0.861816 11.9263 0.861816 15.3296C0.861816 18.7354 2.24121 21.8164 4.47266 24.0479C6.7041 26.2793 9.78515 27.6587 13.1909 27.6587C16.5967 27.6587 19.6777 26.2793 21.9092 24.0479C24.1406 21.8164 25.52 18.7354 25.52 15.3296C25.5225 11.9263 24.1406 8.84277 21.9116 6.61133ZM18.9453 9.57764C17.4731 8.10547 15.4395 7.19482 13.1934 7.19482C10.9473 7.19482 8.91357 8.10547 7.44141 9.57764C5.96924 11.0498 5.05859 13.0835 5.05859 15.3296C5.05859 17.5757 5.96924 19.6094 7.44141 21.084C8.91357 22.5562 10.9473 23.4668 13.1934 23.4668C15.4395 23.4668 17.4731 22.5562 18.9453 21.084C20.4175 19.6118 21.3281 17.5781 21.3281 15.3296C21.3281 13.0835 20.4175 11.0498 18.9453 9.57764Z" fill="black"/>
</g>
</g>
</svg>
