<svg width="30" height="30" viewBox="0 0 30 30" fill="none" xmlns="http://www.w3.org/2000/svg">
<g id="maid-svgrepo-com 1" clip-path="url(#clip0_522_127)">
<g id="Group">
<g id="Group_2">
<path id="Vector" d="M25.5519 18.6553C25.5417 18.6009 25.5247 18.5473 25.5034 18.4962C25.4821 18.4443 25.4558 18.3949 25.4251 18.349C25.3946 18.3022 25.3589 18.2588 25.3197 18.2197C25.2805 18.1806 25.2371 18.1448 25.1903 18.1142C25.1444 18.0835 25.095 18.0572 25.0432 18.0359C24.992 18.0146 24.9385 17.9984 24.884 17.9874C24.7743 17.9652 24.6611 17.9652 24.5513 17.9874C24.4977 17.9984 24.4441 18.0146 24.3922 18.0359C24.3412 18.0572 24.2918 18.0835 24.2458 18.1142C24.1989 18.1448 24.1555 18.1806 24.1164 18.2197C24.0772 18.2588 24.0415 18.3023 24.01 18.349C23.9795 18.3949 23.953 18.4443 23.9318 18.4962C23.9105 18.5472 23.8944 18.6008 23.8832 18.6553C23.8722 18.7098 23.8672 18.766 23.8672 18.8213C23.8672 18.8766 23.8723 18.9327 23.8832 18.988C23.8943 19.0416 23.9105 19.0953 23.9318 19.1472C23.953 19.1982 23.9795 19.2476 24.01 19.2935C24.0415 19.3404 24.0772 19.3837 24.1164 19.4229C24.1555 19.462 24.1989 19.4977 24.2458 19.5284C24.2918 19.5598 24.3411 19.5854 24.3922 19.6067C24.4441 19.6279 24.4977 19.6449 24.5513 19.656C24.6065 19.6671 24.6628 19.6722 24.7181 19.6722C24.7733 19.6722 24.8295 19.6671 24.884 19.656C24.9385 19.6449 24.9921 19.6279 25.0432 19.6067C25.095 19.5854 25.1444 19.5598 25.1903 19.5284C25.2371 19.4977 25.2805 19.462 25.3197 19.4229C25.3589 19.3837 25.3946 19.3403 25.4251 19.2935C25.4558 19.2476 25.4821 19.1983 25.5034 19.1472C25.5247 19.0953 25.5417 19.0416 25.5519 18.988C25.563 18.9327 25.5689 18.8766 25.5689 18.8213C25.5689 18.766 25.5629 18.7098 25.5519 18.6553Z" fill="black"/>
</g>
</g>
<g id="Group_3">
<g id="Group_4">
<path id="Vector_2" d="M8.19435 1.80539C8.18328 1.75095 8.16722 1.69734 8.14595 1.64625C8.12468 1.59521 8.0982 1.54582 8.06767 1.49906C8.03621 1.45312 8.00047 1.40888 7.96133 1.36974C7.92213 1.3306 7.87871 1.29486 7.83189 1.26422C7.78595 1.23357 7.73662 1.2072 7.68552 1.18593C7.63361 1.16466 7.58 1.14849 7.52638 1.13742C7.41664 1.11527 7.30344 1.11527 7.19369 1.13742C7.13926 1.14849 7.08564 1.16466 7.03455 1.18593C6.98275 1.2072 6.93336 1.23357 6.88742 1.26422C6.84055 1.29486 6.79713 1.3306 6.75799 1.36974C6.71885 1.40888 6.68311 1.45312 6.65246 1.49906C6.62193 1.54588 6.59545 1.59521 6.57418 1.64625C6.55291 1.69728 6.5368 1.75089 6.52578 1.80539C6.51471 1.8607 6.50879 1.91601 6.50879 1.97214C6.50879 2.19591 6.59984 2.41458 6.75811 2.57285C6.79719 2.61281 6.84049 2.64773 6.88736 2.67919C6.9333 2.70984 6.98264 2.7362 7.03449 2.75747C7.08564 2.77874 7.13914 2.79492 7.19363 2.80599C7.24812 2.81706 7.30426 2.82216 7.35957 2.82216C7.41476 2.82216 7.47101 2.81706 7.52633 2.80599C7.57994 2.79492 7.63355 2.77874 7.68547 2.75747C7.7365 2.7362 7.7859 2.70984 7.83183 2.67919C7.87865 2.64773 7.92201 2.61281 7.96127 2.57285C8.12029 2.41458 8.21058 2.19591 8.21058 1.97214C8.21047 1.91601 8.20531 1.8607 8.19435 1.80539Z" fill="black"/>
</g>
</g>
<g id="Group_5">
<g id="Group_6">
<path id="Vector_3" d="M11.0402 21.519C10.9319 21.519 10.8239 21.5237 10.7165 21.5332C10.4746 20.9951 10.1083 20.53 9.65752 20.1697V16.4686C9.65752 15.9987 9.27649 15.6177 8.80662 15.6177H8.2109V4.52437C8.2109 4.05445 7.82987 3.67347 7.36001 3.67347C6.89014 3.67347 6.50911 4.05439 6.50911 4.52437V15.6177H5.91356C5.4437 15.6177 5.06267 15.9986 5.06267 16.4686V20.1697C4.61185 20.53 4.24558 20.9951 4.00359 21.5333C3.89618 21.5238 3.78825 21.519 3.67991 21.519C1.65088 21.519 0 23.1699 0 25.1991C0 27.2283 1.65088 28.8792 3.68003 28.8792H11.0402C13.0693 28.8792 14.7202 27.2283 14.7202 25.1991C14.7202 23.1699 13.0693 21.519 11.0402 21.519ZM6.76458 17.3195H7.95579V19.412C7.95075 19.4111 7.94565 19.4106 7.94067 19.4097C7.90534 19.4041 7.86989 19.3991 7.83432 19.3945C7.82155 19.3928 7.80877 19.391 7.79606 19.3895C7.76055 19.3853 7.72499 19.3817 7.6893 19.3786C7.67653 19.3774 7.66387 19.376 7.6511 19.375C7.61348 19.372 7.57569 19.3699 7.53784 19.3681C7.52717 19.3675 7.51663 19.3667 7.50602 19.3663C7.45762 19.3644 7.40905 19.3633 7.36024 19.3633C7.31137 19.3633 7.2628 19.3644 7.21434 19.3663C7.20438 19.3667 7.19442 19.3675 7.18446 19.368C7.14585 19.3699 7.10735 19.372 7.06909 19.375C7.05708 19.376 7.04512 19.3773 7.03299 19.3784C6.99649 19.3816 6.96005 19.3852 6.92383 19.3895C6.91176 19.391 6.89975 19.3927 6.88768 19.3942C6.85135 19.3989 6.81503 19.404 6.77893 19.4098C6.77419 19.4107 6.76938 19.4111 6.76464 19.4119L6.76458 17.3195ZM11.0402 27.1773H3.68003C2.58919 27.1773 1.70174 26.2899 1.70174 25.199C1.70174 24.1082 2.58919 23.2207 3.68003 23.2207C3.89437 23.2207 4.10624 23.2553 4.30974 23.3237C4.54294 23.4019 4.79864 23.3755 5.01093 23.251C5.22321 23.1265 5.3711 22.9163 5.41669 22.6744C5.52532 22.0974 5.88011 21.6188 6.35964 21.3374C6.37639 21.3276 6.39356 21.3186 6.41061 21.3092C6.43938 21.2935 6.46839 21.2782 6.49798 21.2638C6.51544 21.2553 6.53301 21.2472 6.55065 21.2392C6.58223 21.2251 6.61423 21.2119 6.64657 21.1993C6.66251 21.1931 6.67821 21.1866 6.69432 21.1808C6.74149 21.164 6.78919 21.1485 6.83776 21.1353C6.84825 21.1324 6.85885 21.1304 6.8694 21.1277C6.90895 21.1176 6.94897 21.1085 6.98946 21.1008C7.00751 21.0974 7.02573 21.0945 7.04383 21.0916C7.07917 21.0859 7.11462 21.0811 7.15048 21.0773C7.16782 21.0754 7.1851 21.0734 7.20256 21.072C7.25325 21.068 7.3044 21.0653 7.35596 21.0652C7.35743 21.0652 7.35878 21.0651 7.36024 21.0651C7.36141 21.0651 7.36264 21.0651 7.36381 21.0651C7.41573 21.0652 7.467 21.0679 7.51797 21.0719C7.53514 21.0733 7.55237 21.0753 7.56948 21.0771C7.60557 21.0809 7.64137 21.0857 7.67694 21.0915C7.69481 21.0944 7.71274 21.0972 7.73055 21.1006C7.77139 21.1083 7.81182 21.1175 7.8519 21.1278C7.86204 21.1304 7.87223 21.1323 7.88225 21.1351C7.931 21.1485 7.97899 21.164 8.02622 21.1809C8.04198 21.1865 8.05727 21.1929 8.07285 21.1989C8.10561 21.2116 8.13813 21.225 8.17 21.2394C8.18729 21.2471 8.20446 21.2551 8.22157 21.2633C8.25192 21.278 8.28174 21.2938 8.31127 21.31C8.32745 21.3189 8.34385 21.3274 8.35985 21.3368C8.83985 21.6181 9.19481 22.097 9.30356 22.6743C9.34908 22.9161 9.49697 23.1263 9.70932 23.2508C9.92154 23.3753 10.1771 23.4018 10.4105 23.3235C10.6141 23.2552 10.826 23.2205 11.0402 23.2205C12.131 23.2205 13.0185 24.108 13.0185 25.1988C13.0185 26.2897 12.131 27.1773 11.0402 27.1773Z" fill="black"/>
</g>
</g>
<g id="Group_7">
<g id="Group_8">
<path id="Vector_4" d="M30 14.6554C30 10.2063 26.3802 6.58663 21.9311 6.58663C17.482 6.58663 13.8623 10.2063 13.8623 14.6554V15.3127C13.8623 15.4051 13.8774 15.4936 13.9046 15.5769L16.4358 28.1955C16.5156 28.5929 16.8646 28.879 17.2701 28.879H26.5924C26.9978 28.879 27.3468 28.5929 27.4266 28.1955L29.9578 15.5769C29.9849 15.4937 30.0001 15.405 30.0001 15.3127V14.6554H30ZM25.8951 27.1773H17.9672L16.4618 19.6723H22.1652C22.6351 19.6723 23.0161 19.2914 23.0161 18.8214C23.0161 18.3514 22.6351 17.9705 22.1652 17.9705H16.1204L15.7559 16.1534H28.1063L25.8951 27.1773ZM15.5693 14.4517C15.6775 11.0351 18.4887 8.28842 21.9312 8.28842C25.3737 8.28842 28.1849 11.0351 28.293 14.4517H15.5693Z" fill="black"/>
</g>
</g>
</g>
<defs>
<clipPath id="clip0_522_127">
<rect width="30" height="30" fill="white"/>
</clipPath>
</defs>
</svg>
