<svg width="30" height="30" viewBox="0 0 30 30" fill="none" xmlns="http://www.w3.org/2000/svg">
<g id="apartment-svgrepo-com 1">
<path id="Vector" d="M4.95229 9.71487H11.4294V7.28594C11.4302 6.85683 11.6011 6.44472 11.9047 6.14111C12.2075 5.8383 12.6196 5.66747 13.0487 5.66666H24.3837C24.8128 5.66747 25.2249 5.83749 25.5286 6.14111C25.8322 6.44472 26.0022 6.85683 26.003 7.28594V26.7174C26.0022 27.1465 25.8314 27.5586 25.5286 27.8614C25.2249 28.165 24.8128 28.3358 24.3837 28.3367H4.95229C4.52318 28.3358 4.11188 28.165 3.80827 27.8614C3.50465 27.5578 3.33382 27.1465 3.33301 26.7174V11.3342C3.33382 10.905 3.50465 10.4929 3.80827 10.1893C4.11107 9.88652 4.52318 9.71568 4.95229 9.71487ZM17.0969 26.7174H20.3355V22.6692H17.0969V26.7174ZM13.0487 26.7174H15.4777V22.6692C15.4785 22.24 15.6493 21.8279 15.9529 21.5251C16.2557 21.2215 16.6678 21.0507 17.0969 21.0499H20.3355C20.7646 21.0507 21.1767 21.2215 21.4803 21.5251C21.7831 21.8279 21.954 22.24 21.9548 22.6692V26.7174H24.3837L24.3845 7.28594H13.0487V26.7174ZM4.95229 26.7174H11.4294V11.3342H4.95229V26.7174ZM15.4777 17.0017C15.4777 17.162 15.5254 17.3182 15.6145 17.4518C15.7027 17.5846 15.8298 17.6882 15.9772 17.7498C16.1254 17.8113 16.2881 17.8267 16.4452 17.7959C16.6022 17.7643 16.7464 17.6874 16.8597 17.5741C16.9731 17.4607 17.05 17.3166 17.0816 17.1595C17.1123 17.0025 17.0969 16.8397 17.0354 16.6916C16.9739 16.5442 16.8702 16.4171 16.7375 16.3288C16.6039 16.2398 16.4476 16.192 16.2873 16.192C16.0727 16.192 15.8663 16.277 15.7149 16.4292C15.5627 16.5806 15.4777 16.7871 15.4777 17.0017ZM15.4777 13.7631C15.4777 13.9234 15.5254 14.0797 15.6145 14.2132C15.7027 14.346 15.8298 14.4497 15.9772 14.5112C16.1254 14.5727 16.2881 14.5881 16.4452 14.5573C16.6022 14.5258 16.7464 14.4489 16.8597 14.3355C16.9731 14.2222 17.05 14.078 17.0816 13.921C17.1123 13.7639 17.0969 13.6012 17.0354 13.453C16.9739 13.3056 16.8702 13.1785 16.7375 13.0903C16.6039 13.0012 16.4476 12.9534 16.2873 12.9534C16.0727 12.9534 15.8663 13.0385 15.7149 13.1907C15.5627 13.3421 15.4777 13.5485 15.4777 13.7631ZM15.4777 10.5245C15.4777 10.6848 15.5254 10.8411 15.6145 10.9747C15.7027 11.1075 15.8298 11.2111 15.9772 11.2726C16.1254 11.3342 16.2881 11.3495 16.4452 11.3188C16.6022 11.2872 16.7464 11.2103 16.8597 11.0969C16.9731 10.9836 17.05 10.8395 17.0816 10.6824C17.1123 10.5253 17.0969 10.3626 17.0354 10.2144C16.9739 10.0671 16.8702 9.93995 16.7375 9.8517C16.6039 9.76264 16.4476 9.71487 16.2873 9.71487C16.0727 9.71487 15.8663 9.79988 15.7149 9.9521C15.5627 10.1035 15.4777 10.31 15.4777 10.5245ZM20.3355 17.0017C20.3355 17.162 20.3833 17.3182 20.4723 17.4518C20.5606 17.5846 20.6877 17.6882 20.8351 17.7498C20.9832 17.8113 21.146 17.8267 21.303 17.7959C21.4601 17.7643 21.6042 17.6874 21.7176 17.5741C21.8309 17.4607 21.9078 17.3166 21.9394 17.1595C21.9702 17.0025 21.9548 16.8397 21.8933 16.6916C21.8317 16.5442 21.7281 16.4171 21.5953 16.3288C21.4617 16.2398 21.3055 16.192 21.1452 16.192C20.9306 16.192 20.7241 16.277 20.5727 16.4292C20.4205 16.5806 20.3355 16.7871 20.3355 17.0017ZM20.3355 13.7631C20.3355 13.9234 20.3833 14.0797 20.4723 14.2132C20.5606 14.346 20.6877 14.4497 20.8351 14.5112C20.9832 14.5727 21.146 14.5881 21.303 14.5573C21.4601 14.5258 21.6042 14.4489 21.7176 14.3355C21.8309 14.2222 21.9078 14.078 21.9394 13.921C21.9702 13.7639 21.9548 13.6012 21.8933 13.453C21.8317 13.3056 21.7281 13.1785 21.5953 13.0903C21.4617 13.0012 21.3055 12.9534 21.1452 12.9534C20.9306 12.9534 20.7241 13.0385 20.5727 13.1907C20.4205 13.3421 20.3355 13.5485 20.3355 13.7631ZM20.3355 10.5245C20.3355 10.6848 20.3833 10.8411 20.4723 10.9747C20.5606 11.1075 20.6877 11.2111 20.8351 11.2726C20.9832 11.3342 21.146 11.3495 21.303 11.3188C21.4601 11.2872 21.6042 11.2103 21.7176 11.0969C21.8309 10.9836 21.9078 10.8395 21.9394 10.6824C21.9702 10.5253 21.9548 10.3626 21.8933 10.2144C21.8317 10.0671 21.7281 9.93995 21.5953 9.8517C21.4617 9.76264 21.3055 9.71487 21.1452 9.71487C20.9306 9.71487 20.7241 9.79988 20.5727 9.9521C20.4205 10.1035 20.3355 10.31 20.3355 10.5245Z" fill="black"/>
</g>
</svg>
