<svg width="26" height="25" viewBox="0 0 26 25" fill="none" xmlns="http://www.w3.org/2000/svg">
<g id="Icon_Twitter" clip-path="url(#clip0_522_566)">
<path id="Vector" d="M0.414062 12.5C0.414062 5.625 6.09735 0 13.0436 0C19.9898 0 25.6731 5.625 25.6731 12.5C25.6731 19.375 19.9898 25 13.0436 25C6.09735 25 0.414062 19.375 0.414062 12.5ZM13.1225 10.1562V10.625L12.6489 10.5469C10.9124 10.3125 9.4126 9.60938 8.14965 8.35938L7.51817 7.73438L7.3603 8.20312C7.04457 9.21875 7.20244 10.3125 7.91285 11.0156C8.30752 11.4062 8.22859 11.4844 7.59711 11.25C7.3603 11.1719 7.20244 11.0938 7.1235 11.1719C7.04457 11.25 7.28137 12.1094 7.43924 12.4219C7.67604 12.8906 8.22859 13.3594 8.70219 13.5938L9.1758 13.8281H8.62326C8.07072 13.8281 8.07072 13.8281 8.14965 14.0625C8.38645 14.6875 9.09687 15.3125 9.96515 15.625L10.5177 15.8594L10.0441 16.1719C9.25473 16.6406 8.38645 16.875 7.51817 16.875C7.1235 16.875 6.72883 16.9531 6.72883 16.9531C6.72883 17.0312 7.91285 17.5781 8.54432 17.8125C10.5966 18.4375 12.9647 18.125 14.7802 17.1094C16.0431 16.3281 17.3061 14.8438 17.9375 13.4375C18.2533 12.6562 18.569 11.25 18.569 10.625C18.569 10.2344 18.6479 10.1562 19.1216 9.60938C19.4373 9.29688 19.753 8.98438 19.753 8.82812C19.832 8.67188 19.832 8.67188 19.3584 8.82812C18.569 9.14062 18.4111 9.0625 18.8848 8.59375C19.2005 8.28125 19.5162 7.73438 19.5162 7.57812C19.5162 7.57812 19.3584 7.57812 19.2005 7.65625C19.0426 7.73438 18.6479 7.89062 18.3322 7.96875L17.8586 8.125L17.4639 7.8125C17.2271 7.65625 16.8325 7.42188 16.6746 7.42188C16.201 7.26562 15.4906 7.26562 15.017 7.5C13.754 7.8125 13.0436 8.98438 13.1225 10.1562Z" fill="white"/>
</g>
<defs>
<clipPath id="clip0_522_566">
<rect width="25.2591" height="25" fill="white" transform="translate(0.414062)"/>
</clipPath>
</defs>
</svg>
