<svg width="26" height="25" viewBox="0 0 26 25" fill="none" xmlns="http://www.w3.org/2000/svg">
<g id="Icon_LinkedIn" clip-path="url(#clip0_522_568)">
<path id="Vector" d="M0.0507812 12.5C0.0507812 5.625 5.73407 0 12.6803 0C19.6266 0 25.3098 5.625 25.3098 12.5C25.3098 19.375 19.6266 25 12.6803 25C5.73407 25 0.0507812 19.375 0.0507812 12.5ZM8.97039 10.4688H6.04981V19.2969H8.97039V10.4688ZM9.20719 7.73438C9.20719 6.875 8.57572 6.25 7.54957 6.25C6.52342 6.25 5.813 6.875 5.813 7.73438C5.813 8.59375 6.44448 9.29688 7.47063 9.29688C8.49678 9.29688 9.20719 8.59375 9.20719 7.73438ZM19.6266 14.2188C19.6266 11.4844 18.1268 10.2344 16.2324 10.2344C14.6537 10.2344 13.9433 11.0938 13.5486 11.7188V10.4688H10.628C10.628 11.3281 10.628 19.2969 10.628 19.2969H13.5486V14.375C13.5486 14.1406 13.5486 13.8281 13.6275 13.6719C13.8643 13.125 14.3379 12.5781 15.1273 12.5781C16.1534 12.5781 16.627 13.3594 16.627 14.6094V19.2969H19.5476C19.6266 19.2969 19.6266 14.2188 19.6266 14.2188Z" fill="white"/>
</g>
<defs>
<clipPath id="clip0_522_568">
<rect width="25.2591" height="25" fill="white" transform="translate(0.0507812)"/>
</clipPath>
</defs>
</svg>
