<svg width="26" height="25" viewBox="0 0 26 25" fill="none" xmlns="http://www.w3.org/2000/svg">
<g id="Icon_Instagram" clip-path="url(#clip0_522_570)">
<path id="Vector" d="M0.6875 12.5C0.6875 5.625 6.37079 0 13.317 0C20.2633 0 25.9466 5.625 25.9466 12.5C25.9466 19.375 20.2633 25 13.317 25C6.37079 25 0.6875 19.375 0.6875 12.5ZM13.5538 6.25C11.8173 6.25 11.5805 6.25 10.8701 6.25C10.1596 6.32812 9.68604 6.40625 9.29137 6.5625C8.8967 6.71875 8.50202 6.95312 8.10735 7.34375C7.71268 7.73438 7.47587 8.04688 7.318 8.51562C7.16013 8.90625 7.00227 9.375 7.00227 10.0781C7.00227 10.7812 7.00227 10.9375 7.00227 12.7344C7.00227 14.5312 7.00227 14.7656 7.0812 15.4688C7.0812 16.1719 7.23907 16.6406 7.39694 17.0312C7.55481 17.4219 7.79161 17.8125 8.18628 18.2031C8.50202 18.5156 8.8967 18.75 9.3703 18.9844C9.76498 19.1406 10.2386 19.2969 10.949 19.2969C11.6594 19.2969 11.8962 19.375 13.6328 19.375C15.4483 19.375 15.6851 19.375 16.3955 19.2969C17.1059 19.2188 17.5795 19.1406 17.9742 18.9844C18.3688 18.8281 18.7635 18.5938 19.1582 18.2031C19.5529 17.8125 19.7897 17.5 19.9475 17.0312C20.1054 16.6406 20.2633 16.0938 20.2633 15.4688C20.3422 14.7656 20.3422 14.5312 20.3422 12.7344C20.3422 10.9375 20.3422 10.7812 20.2633 10.0781C20.2633 9.375 20.1054 8.90625 19.9475 8.51562C19.7897 8.04688 19.5529 7.73438 19.1582 7.34375C18.8425 7.03125 18.4478 6.79688 17.9742 6.5625C17.5795 6.40625 17.027 6.32812 16.3955 6.25C15.6061 6.25 15.3693 6.25 13.5538 6.25ZM13.0013 7.42188C13.1592 7.42188 13.396 7.42188 13.5538 7.42188C15.2904 7.42188 15.5272 7.42188 16.2376 7.42188C16.8691 7.42188 17.1848 7.57812 17.4216 7.65625C17.7374 7.8125 17.9742 7.96875 18.211 8.125C18.4478 8.28125 18.6056 8.51562 18.6846 8.90625C18.7635 9.14062 18.9214 9.45312 18.9214 10.0781C19.0003 10.7812 19.0003 11.0156 19.0003 12.7344C19.0003 14.4531 19.0003 14.6875 18.9214 15.3906C18.9214 16.0156 18.7635 16.4062 18.6846 16.6406C18.6056 16.9531 18.4478 17.1094 18.211 17.4219C17.9742 17.6562 17.7374 17.7344 17.4216 17.8906C17.1848 17.9688 16.8691 18.125 16.2376 18.125C15.5272 18.125 15.2904 18.2031 13.5538 18.2031C11.8173 18.2031 11.5805 18.2031 10.8701 18.125C10.2386 18.125 9.92284 17.9688 9.68604 17.8906C9.3703 17.7344 9.1335 17.6562 8.8967 17.4219C8.65989 17.1875 8.50202 16.9531 8.42309 16.6406C8.34415 16.4062 8.26522 16.0938 8.18628 15.3906C8.18628 14.6875 8.18628 14.5312 8.18628 12.7344C8.18628 11.0156 8.18628 10.7812 8.18628 10.0781C8.26522 9.45312 8.34415 9.14062 8.42309 8.90625C8.58096 8.59375 8.73883 8.35938 8.8967 8.125C9.05456 7.89062 9.3703 7.73438 9.68604 7.65625C9.92284 7.57812 10.2386 7.42188 10.8701 7.42188C11.5015 7.42188 11.7383 7.42188 13.0013 7.42188ZM17.1059 8.51562C16.7112 8.51562 16.3165 8.82812 16.3165 9.29688C16.3165 9.76562 16.6323 10.0781 17.1059 10.0781C17.5795 10.0781 17.8952 9.76562 17.8952 9.29688C17.8952 8.82812 17.5006 8.51562 17.1059 8.51562ZM13.5538 9.375C11.7383 9.375 10.1596 10.8594 10.1596 12.7344C10.1596 14.6094 11.6594 16.0938 13.5538 16.0938C15.4483 16.0938 16.948 14.6094 16.948 12.7344C16.948 10.8594 15.4483 9.375 13.5538 9.375ZM13.5538 10.5469C14.7379 10.5469 15.764 11.4844 15.764 12.7344C15.764 13.9844 14.8168 14.9219 13.5538 14.9219C12.3698 14.9219 11.3437 13.9844 11.3437 12.7344C11.3437 11.4844 12.3698 10.5469 13.5538 10.5469Z" fill="white"/>
</g>
<defs>
<clipPath id="clip0_522_570">
<rect width="25.2591" height="25" fill="white" transform="translate(0.6875)"/>
</clipPath>
</defs>
</svg>
