<svg width="26" height="25" viewBox="0 0 26 25" fill="none" xmlns="http://www.w3.org/2000/svg">
<g id="Icon_Facebook 1" clip-path="url(#clip0_522_572)">
<path id="Vector" d="M0.328125 12.5C0.328125 5.625 6.01141 0 12.9577 0C19.9039 0 25.5872 5.625 25.5872 12.5C25.5872 19.375 19.9039 25 12.9577 25C6.01141 25 0.328125 19.375 0.328125 12.5ZM13.9049 19.2969V12.7344H15.7204L15.9572 10.4688H13.9049V9.375C13.9049 8.82812 13.9838 8.51562 14.8521 8.51562H15.9572V6.25H14.1417C11.9315 6.25 11.2211 7.34375 11.2211 9.14062V10.4688H9.80027V12.7344H11.1422V19.2969H13.9049Z" fill="white"/>
</g>
<defs>
<clipPath id="clip0_522_572">
<rect width="25.2591" height="25" fill="white" transform="translate(0.328125)"/>
</clipPath>
</defs>
</svg>
